<?xml version="1.0" encoding="UTF-8" standalone="no" ?>
<!DOCTYPE svg PUBLIC "-//W3C//DTD SVG 1.1//EN" "http://www.w3.org/Graphics/SVG/1.1/DTD/svg11.dtd">
<svg xmlns="http://www.w3.org/2000/svg" xmlns:xlink="http://www.w3.org/1999/xlink" version="1.1" width="350" height="350" viewBox="0 0 350 350" xml:space="preserve">
<desc>Created with Fabric.js 3.6.3</desc>
<defs>
</defs>
<g transform="matrix(0.61 0 0 0.61 174.75 175.25)"  >
<g style=""   >
		<g transform="matrix(1 0 0 1 0 -157.25)"  >
<path style="stroke: none; stroke-width: 1; stroke-dasharray: none; stroke-linecap: butt; stroke-dashoffset: 0; stroke-linejoin: miter; stroke-miterlimit: 4; fill: rgb(145,173,181); fill-rule: nonzero; opacity: 1;"  transform=" translate(-249.6, -92.35)" d="M 257.938 81.164 V 11.823 c 0 -4.608 -3.742 -8.35 -8.342 -8.35 c -4.6 0 -8.342 3.742 -8.342 8.35 v 77.17 c 0 4.6 3.742 8.342 8.342 8.342 c 0.52 0 1.048 -0.055 1.536 -0.158 c 17.881 0.819 32.185 15.573 32.185 33.642 c 0 18.582 -15.124 33.713 -33.721 33.713 c -18.582 0 -33.721 -15.132 -33.721 -33.713 h -16.691 c 0 27.79 22.63 50.404 50.412 50.404 c 27.798 0 50.412 -22.615 50.412 -50.404 C 300.008 105.874 281.765 85.165 257.938 81.164 z" stroke-linecap="round" />
</g>
		<g transform="matrix(1 0 0 1 -0.01 -207.33)"  >
<path style="stroke: none; stroke-width: 1; stroke-dasharray: none; stroke-linecap: butt; stroke-dashoffset: 0; stroke-linejoin: miter; stroke-miterlimit: 4; fill: rgb(168,198,204); fill-rule: nonzero; opacity: 1;"  transform=" translate(-249.59, -42.26)" d="M 249.596 80.187 c 0.52 0 1.048 -0.063 1.536 -0.158 c 2.355 0.11 4.616 0.465 6.798 1.024 V 64.016 V 11.823 c 0 -4.608 -3.742 -8.35 -8.342 -8.35 c -4.6 0 -8.342 3.742 -8.342 8.35 v 60.022 C 241.254 76.453 244.996 80.187 249.596 80.187 z" stroke-linecap="round" />
</g>
		<g transform="matrix(1 0 0 1 29.58 -127.29)"  >
<path style="stroke: none; stroke-width: 1; stroke-dasharray: none; stroke-linecap: butt; stroke-dashoffset: 0; stroke-linejoin: miter; stroke-miterlimit: 4; fill: rgb(168,198,204); fill-rule: nonzero; opacity: 1;"  transform=" translate(-279.18, -122.31)" d="M 299.229 122.132 c -3.568 -20.488 -19.598 -36.691 -39.952 -40.676 c 13.879 4.167 24.048 16.998 24.048 32.224 c 0 2.962 -0.433 5.821 -1.15 8.562 c 0.725 2.749 1.15 5.616 1.15 8.586 c 0 15.273 -10.232 28.199 -24.198 32.327 C 279.623 159.201 295.715 142.801 299.229 122.132 z" stroke-linecap="round" />
</g>
		<g transform="matrix(1 0 0 1 -28.43 -102.62)"  >
<path style="stroke: none; stroke-width: 1; stroke-dasharray: none; stroke-linecap: butt; stroke-dashoffset: 0; stroke-linejoin: miter; stroke-miterlimit: 4; fill: rgb(168,198,204); fill-rule: nonzero; opacity: 1;"  transform=" translate(-221.16, -146.98)" d="M 215.875 130.82 h -13.619 c 5.986 16.463 20.259 28.956 37.817 32.327 C 226.107 159.019 215.875 146.101 215.875 130.82 z" stroke-linecap="round" />
</g>
		<g transform="matrix(1 0 0 1 0 -234.65)"  >
<path style="stroke: none; stroke-width: 1; stroke-dasharray: none; stroke-linecap: butt; stroke-dashoffset: 0; stroke-linejoin: miter; stroke-miterlimit: 4; fill: rgb(96,131,135); fill-rule: nonzero; opacity: 1;"  transform=" translate(-249.6, -14.95)" d="M 281.23 24.332 c 0 3.08 -2.489 5.569 -5.553 5.569 h -52.153 c -3.08 0 -5.553 -2.489 -5.553 -5.569 V 5.561 c 0 -3.08 2.473 -5.561 5.553 -5.561 h 52.153 c 3.064 0 5.553 2.481 5.553 5.561 V 24.332 z" stroke-linecap="round" />
</g>
		<g transform="matrix(1 0 0 1 -0.01 -3.45)"  >
<path style="stroke: none; stroke-width: 1; stroke-dasharray: none; stroke-linecap: butt; stroke-dashoffset: 0; stroke-linejoin: miter; stroke-miterlimit: 4; fill: rgb(145,173,181); fill-rule: nonzero; opacity: 1;"  transform=" translate(-249.59, -246.15)" d="M 92.719 336.4 c -3.033 0 -6.049 -1.15 -8.357 -3.458 c -4.616 -4.616 -4.616 -12.091 0 -16.707 l 156.877 -156.877 c 4.616 -4.616 12.091 -4.616 16.707 0 l 156.877 156.877 c 4.616 4.616 4.616 12.091 0 16.707 c -4.616 4.616 -12.091 4.616 -16.707 0 L 249.596 184.415 L 101.077 332.942 C 98.769 335.25 95.736 336.4 92.719 336.4 z" stroke-linecap="round" />
</g>
		<g transform="matrix(1 0 0 1 0 150.15)"  >
<path style="stroke: none; stroke-width: 1; stroke-dasharray: none; stroke-linecap: butt; stroke-dashoffset: 0; stroke-linejoin: miter; stroke-miterlimit: 4; fill: rgb(4,150,150); fill-rule: nonzero; opacity: 1;"  transform=" translate(-249.6, -399.75)" d="M 485.691 483.801 c 0 8.499 -6.877 15.392 -15.384 15.392 H 28.9 c -8.507 0 -15.399 -6.892 -15.399 -15.392 V 315.691 c 0 -8.499 6.892 -15.392 15.399 -15.392 h 441.407 c 8.507 0 15.384 6.892 15.384 15.392 V 483.801 z" stroke-linecap="round" />
</g>
		<g transform="matrix(1 0 0 1 -0.01 -3.45)"  >
<path style="stroke: none; stroke-width: 1; stroke-dasharray: none; stroke-linecap: butt; stroke-dashoffset: 0; stroke-linejoin: miter; stroke-miterlimit: 4; fill: rgb(145,173,181); fill-rule: nonzero; opacity: 1;"  transform=" translate(-249.59, -246.15)" d="M 92.719 336.4 c -3.033 0 -6.049 -1.15 -8.357 -3.458 c -4.616 -4.616 -4.616 -12.091 0 -16.707 l 156.877 -156.877 c 4.616 -4.616 12.091 -4.616 16.707 0 l 156.877 156.877 c 4.616 4.616 4.616 12.091 0 16.707 c -4.616 4.616 -12.091 4.616 -16.707 0 L 249.596 184.415 L 101.077 332.942 C 98.769 335.25 95.736 336.4 92.719 336.4 z" stroke-linecap="round" />
</g>
		<g transform="matrix(1 0 0 1 -71.99 -3.46)"  >
<path style="stroke: none; stroke-width: 1; stroke-dasharray: none; stroke-linecap: butt; stroke-dashoffset: 0; stroke-linejoin: miter; stroke-miterlimit: 4; fill: rgb(168,198,204); fill-rule: nonzero; opacity: 1;"  transform=" translate(-177.61, -246.14)" d="M 100.777 332.635 l 156.877 -156.877 c 4.616 -4.608 12.06 -4.608 16.675 -0.016 l -16.384 -16.392 c -4.616 -4.616 -12.091 -4.616 -16.707 0 L 84.362 316.227 c -4.616 4.616 -4.616 12.091 0 16.707 c 2.308 2.308 5.325 3.458 8.357 3.458 c 2.678 0 5.293 -1.063 7.475 -2.875 C 100.423 333.249 100.517 332.902 100.777 332.635 z" stroke-linecap="round" />
</g>
		<g transform="matrix(1 0 0 1 147.69 150.15)"  >
<path style="stroke: none; stroke-width: 1; stroke-dasharray: none; stroke-linecap: butt; stroke-dashoffset: 0; stroke-linejoin: miter; stroke-miterlimit: 4; fill: rgb(2,209,184); fill-rule: nonzero; opacity: 1;"  transform=" translate(-397.29, -399.75)" d="M 485.691 483.801 V 315.691 c 0 -8.499 -6.877 -15.392 -15.384 -15.392 H 324.285 c -8.507 0 -15.399 6.892 -15.399 15.392 v 168.109 c 0 8.499 6.892 15.392 15.399 15.392 h 146.022 C 478.815 499.192 485.691 492.3 485.691 483.801 z" stroke-linecap="round" />
</g>
		<g transform="matrix(1 0 0 1 147.69 150.15)"  >
<path style="stroke: none; stroke-width: 1; stroke-dasharray: none; stroke-linecap: butt; stroke-dashoffset: 0; stroke-linejoin: miter; stroke-miterlimit: 4; fill: rgb(0,183,165); fill-rule: nonzero; opacity: 1;"  transform=" translate(-397.29, -399.75)" d="M 324.285 300.3 c -8.507 0 -15.399 6.892 -15.399 15.392 v 168.109 c 0 8.499 6.892 15.392 15.399 15.392 h 146.022 c 8.507 0 15.384 -6.892 15.384 -15.392" stroke-linecap="round" />
</g>
		<g transform="matrix(1 0 0 1 -202.29 150.14)"  >
<path style="stroke: none; stroke-width: 1; stroke-dasharray: none; stroke-linecap: butt; stroke-dashoffset: 0; stroke-linejoin: miter; stroke-miterlimit: 4; fill: rgb(0,183,165); fill-rule: nonzero; opacity: 1;"  transform=" translate(-47.3, -399.75)" d="M 51.239 458.823 c 0 2.174 -1.772 3.938 -3.938 3.938 l 0 0 c -2.182 0 -3.938 -1.764 -3.938 -3.938 V 340.669 c 0 -2.174 1.757 -3.938 3.938 -3.938 l 0 0 c 2.166 0 3.938 1.764 3.938 3.938 V 458.823 z" stroke-linecap="round" />
</g>
		<g transform="matrix(1 0 0 1 -173.4 150.14)"  >
<path style="stroke: none; stroke-width: 1; stroke-dasharray: none; stroke-linecap: butt; stroke-dashoffset: 0; stroke-linejoin: miter; stroke-miterlimit: 4; fill: rgb(0,183,165); fill-rule: nonzero; opacity: 1;"  transform=" translate(-76.19, -399.75)" d="M 80.132 458.823 c 0 2.174 -1.772 3.938 -3.938 3.938 l 0 0 c -2.182 0 -3.938 -1.764 -3.938 -3.938 V 340.669 c 0 -2.174 1.757 -3.938 3.938 -3.938 l 0 0 c 2.166 0 3.938 1.764 3.938 3.938 V 458.823 z" stroke-linecap="round" />
</g>
		<g transform="matrix(1 0 0 1 -144.52 150.14)"  >
<path style="stroke: none; stroke-width: 1; stroke-dasharray: none; stroke-linecap: butt; stroke-dashoffset: 0; stroke-linejoin: miter; stroke-miterlimit: 4; fill: rgb(0,183,165); fill-rule: nonzero; opacity: 1;"  transform=" translate(-105.07, -399.75)" d="M 109.009 458.823 c 0 2.174 -1.772 3.938 -3.938 3.938 l 0 0 c -2.182 0 -3.938 -1.764 -3.938 -3.938 V 340.669 c 0 -2.174 1.757 -3.938 3.938 -3.938 l 0 0 c 2.166 0 3.938 1.764 3.938 3.938 V 458.823 z" stroke-linecap="round" />
</g>
		<g transform="matrix(1 0 0 1 -115.63 150.14)"  >
<path style="stroke: none; stroke-width: 1; stroke-dasharray: none; stroke-linecap: butt; stroke-dashoffset: 0; stroke-linejoin: miter; stroke-miterlimit: 4; fill: rgb(0,183,165); fill-rule: nonzero; opacity: 1;"  transform=" translate(-133.96, -399.75)" d="M 137.901 458.823 c 0 2.174 -1.772 3.938 -3.938 3.938 l 0 0 c -2.182 0 -3.938 -1.764 -3.938 -3.938 V 340.669 c 0 -2.174 1.757 -3.938 3.938 -3.938 l 0 0 c 2.166 0 3.938 1.764 3.938 3.938 V 458.823 z" stroke-linecap="round" />
</g>
		<g transform="matrix(1 0 0 1 -86.75 150.14)"  >
<path style="stroke: none; stroke-width: 1; stroke-dasharray: none; stroke-linecap: butt; stroke-dashoffset: 0; stroke-linejoin: miter; stroke-miterlimit: 4; fill: rgb(0,183,165); fill-rule: nonzero; opacity: 1;"  transform=" translate(-162.84, -399.75)" d="M 166.778 458.823 c 0 2.174 -1.772 3.938 -3.938 3.938 l 0 0 c -2.182 0 -3.938 -1.764 -3.938 -3.938 V 340.669 c 0 -2.174 1.757 -3.938 3.938 -3.938 l 0 0 c 2.166 0 3.938 1.764 3.938 3.938 V 458.823 z" stroke-linecap="round" />
</g>
		<g transform="matrix(1 0 0 1 -57.88 150.14)"  >
<path style="stroke: none; stroke-width: 1; stroke-dasharray: none; stroke-linecap: butt; stroke-dashoffset: 0; stroke-linejoin: miter; stroke-miterlimit: 4; fill: rgb(0,183,165); fill-rule: nonzero; opacity: 1;"  transform=" translate(-191.72, -399.75)" d="M 195.655 458.823 c 0 2.174 -1.757 3.938 -3.938 3.938 l 0 0 c -2.166 0 -3.938 -1.764 -3.938 -3.938 V 340.669 c 0 -2.174 1.772 -3.938 3.938 -3.938 l 0 0 c 2.182 0 3.938 1.764 3.938 3.938 V 458.823 z" stroke-linecap="round" />
</g>
		<g transform="matrix(1 0 0 1 -28.98 150.14)"  >
<path style="stroke: none; stroke-width: 1; stroke-dasharray: none; stroke-linecap: butt; stroke-dashoffset: 0; stroke-linejoin: miter; stroke-miterlimit: 4; fill: rgb(0,183,165); fill-rule: nonzero; opacity: 1;"  transform=" translate(-220.61, -399.75)" d="M 224.547 458.823 c 0 2.174 -1.772 3.938 -3.938 3.938 l 0 0 c -2.182 0 -3.938 -1.764 -3.938 -3.938 V 340.669 c 0 -2.174 1.757 -3.938 3.938 -3.938 l 0 0 c 2.166 0 3.938 1.764 3.938 3.938 V 458.823 z" stroke-linecap="round" />
</g>
		<g transform="matrix(1 0 0 1 -0.11 150.14)"  >
<path style="stroke: none; stroke-width: 1; stroke-dasharray: none; stroke-linecap: butt; stroke-dashoffset: 0; stroke-linejoin: miter; stroke-miterlimit: 4; fill: rgb(0,183,165); fill-rule: nonzero; opacity: 1;"  transform=" translate(-249.49, -399.75)" d="M 253.424 458.823 c 0 2.174 -1.757 3.938 -3.938 3.938 l 0 0 c -2.166 0 -3.938 -1.764 -3.938 -3.938 V 340.669 c 0 -2.174 1.772 -3.938 3.938 -3.938 l 0 0 c 2.182 0 3.938 1.764 3.938 3.938 V 458.823 z" stroke-linecap="round" />
</g>
		<g transform="matrix(1 0 0 1 28.79 150.14)"  >
<path style="stroke: none; stroke-width: 1; stroke-dasharray: none; stroke-linecap: butt; stroke-dashoffset: 0; stroke-linejoin: miter; stroke-miterlimit: 4; fill: rgb(0,183,165); fill-rule: nonzero; opacity: 1;"  transform=" translate(-278.38, -399.75)" d="M 282.317 458.823 c 0 2.174 -1.772 3.938 -3.938 3.938 l 0 0 c -2.182 0 -3.938 -1.764 -3.938 -3.938 V 340.669 c 0 -2.174 1.757 -3.938 3.938 -3.938 l 0 0 c 2.166 0 3.938 1.764 3.938 3.938 V 458.823 z" stroke-linecap="round" />
</g>
</g>
</g>
<g transform="matrix(1 0 0 1 177 270)"  >
<g style=""   >
		<g transform="matrix(1 0 0 1 -22.5 -30.41)"  >
<path style="stroke: none; stroke-width: 1; stroke-dasharray: none; stroke-linecap: butt; stroke-dashoffset: 0; stroke-linejoin: miter; stroke-miterlimit: 4; fill: rgb(0,0,0); fill-rule: nonzero; opacity: 1;"  transform=" translate(10.5, -13.78)" d="M 0 0 C 1.11362915 -0.0009668 1.11362915 -0.0009668 2.24975586 -0.00195312 C 8.97237481 0.06146101 15.39577341 0.90111152 22 2.1875 C 22 2.5175 22 2.8475 22 3.1875 C 21.23969482 3.1968457 20.47938965 3.20619141 19.69604492 3.21582031 C 16.19258167 3.27008396 12.69037448 3.35362065 9.1875 3.4375 C 7.99189453 3.45167969 6.79628906 3.46585937 5.56445312 3.48046875 C -4.8225477 3.7634933 -13.5361843 5.74505349 -21.9375 12.125 C -22.81277344 12.77339844 -23.68804687 13.42179687 -24.58984375 14.08984375 C -27.08986229 16.26571078 -28.975474 18.57144583 -31 21.1875 C -36.65077693 27.01525876 -36.65077693 27.01525876 -40.9375 27.5625 C -41.618125 27.43875 -42.29875 27.315 -43 27.1875 C -39.062499 17.61221348 -25.43980853 6.42652804 -16.1875 2.25 C -10.75094532 0.43781511 -5.7123304 -0.00513295 0 0 Z" stroke-linecap="round" />
</g>
		<g transform="matrix(1 0 0 1 -6.5 -25.5)"  >
<path style="stroke: none; stroke-width: 1; stroke-dasharray: none; stroke-linecap: butt; stroke-dashoffset: 0; stroke-linejoin: miter; stroke-miterlimit: 4; fill: rgb(0,0,0); fill-rule: nonzero; opacity: 1;"  transform=" translate(-10.5, -11.5)" d="M 0 0 C 6.93 0 13.86 0 21 0 C 20.67 7.59 20.34 15.18 20 23 C 17.20535455 20.20535455 17.5634919 18.15066095 17.3125 14.25 C 17.22613281 13.03828125 17.13976562 11.8265625 17.05078125 10.578125 C 17 7 17 7 18 1 C 12.06 1 6.12 1 0 1 C 0 0.67 0 0.34 0 0 Z" stroke-linecap="round" />
</g>
		<g transform="matrix(1 0 0 1 -81.5 -13.6)"  >
<path style="stroke: none; stroke-width: 1; stroke-dasharray: none; stroke-linecap: butt; stroke-dashoffset: 0; stroke-linejoin: miter; stroke-miterlimit: 4; fill: rgb(0,0,0); fill-rule: nonzero; opacity: 1;"  transform=" translate(33.5, -2.39)" d="M 0 0 C 0 0.33 0 0.66 0 1 C -0.95028076 1.0501123 -1.90056152 1.10022461 -2.87963867 1.15185547 C -19.94575754 2.05843752 -36.98307347 2.97674731 -53.98193359 4.78857422 C -56.9228512 5.0966839 -59.86725595 5.36196563 -62.8125 5.625 C -63.64394531 5.69976562 -64.47539063 5.77453125 -65.33203125 5.8515625 C -65.88246094 5.90054688 -66.43289062 5.94953125 -67 6 C -61.58481461 0.58481461 -52.49779007 0.35261916 -45.25 -0.1875 C -43.75859497 -0.30702026 -43.75859497 -0.30702026 -42.23706055 -0.42895508 C -28.18520287 -1.46435512 -14.01380151 -1.62478858 0 0 Z" stroke-linecap="round" />
</g>
		<g transform="matrix(1 0 0 1 63.5 -12.11)"  >
<path style="stroke: none; stroke-width: 1; stroke-dasharray: none; stroke-linecap: butt; stroke-dashoffset: 0; stroke-linejoin: miter; stroke-miterlimit: 4; fill: rgb(0,0,0); fill-rule: nonzero; opacity: 1;"  transform=" translate(0.17, -2.14)" d="M 0 0 C 3.42148127 0.01083917 6.84244918 -0.00004574 10.26391602 -0.01269531 C 24.13068151 -0.02118025 37.71197467 0.37501982 51.32836914 3.26074219 C 51.32836914 3.59074219 51.32836914 3.92074219 51.32836914 4.26074219 C 44.30813176 4.37062416 37.37167179 4.24111615 30.36743164 3.76464844 C 21.95341879 3.23582715 13.57025775 3.10554547 5.14086914 3.13574219 C 4.41588226 3.13662842 3.69089539 3.13751465 2.94393921 3.13842773 C -15.26815582 3.16405532 -33.4697126 3.6910326 -51.67163086 4.26074219 C -49.18928219 1.77839352 -48.18115116 1.90896005 -44.74023438 1.63671875 C -43.71316879 1.55403748 -42.68610321 1.4713562 -41.62791443 1.38616943 C -39.94992516 1.26994232 -39.94992516 1.26994232 -38.23803711 1.15136719 C -37.07679825 1.067276 -35.91555939 0.98318481 -34.71913147 0.89654541 C -23.14593167 0.12172253 -11.59575216 -0.04359621 0 0 Z" stroke-linecap="round" />
</g>
		<g transform="matrix(1 0 0 1 -82.35 6.48)"  >
<path style="stroke: none; stroke-width: 1; stroke-dasharray: none; stroke-linecap: butt; stroke-dashoffset: 0; stroke-linejoin: miter; stroke-miterlimit: 4; fill: rgb(0,0,0); fill-rule: nonzero; opacity: 1;"  transform=" translate(-7.65, -14.48)" d="M 0 0 C 2.60478883 -0.0809313 5.20706653 -0.14045434 7.8125 -0.1875 C 8.55048828 -0.21263672 9.28847656 -0.23777344 10.04882812 -0.26367188 C 15.49557159 -0.33760957 15.49557159 -0.33760957 17.984375 1.328125 C 19.61254293 4.0083399 19.43681718 5.94227976 19 9 C 17 11.375 17 11.375 15 13 C 15.495 13.37125 15.99 13.7425 16.5 14.125 C 18.64945323 16.81181653 18.34274009 18.64114713 18 22 C 17.11767361 24.80740215 16.25147249 25.80764231 13.90625 27.6015625 C 10.26898466 29.351752 7.12618172 29.33449386 3.1875 29.1875 C 2.14819336 29.16719727 2.14819336 29.16719727 1.08789062 29.14648438 C -0.60841265 29.11138845 -2.30431136 29.05758943 -4 29 C -3.45089248 19.17286886 -1.81857774 9.6533309 0 0 Z M 6 5 C 5.67 6.98 5.34 8.96 5 11 C 7.41645782 11.16687448 7.41645782 11.16687448 10 11 C 10.66 10.34 11.32 9.68 12 9 C 11.6814823 6.89179203 11.6814823 6.89179203 11 5 C 9.35 5 7.7 5 6 5 Z M 4 17 C 3.67 19.31 3.34 21.62 3 24 C 6.465 23.505 6.465 23.505 10 23 C 10.38218767 21.34385343 10.71395102 19.67542976 11 18 C 9.87465895 16.64381501 9.87465895 16.64381501 6.9375 16.9375 C 5.968125 16.958125 4.99875 16.97875 4 17 Z" stroke-linecap="round" />
</g>
		<g transform="matrix(1 0 0 1 34 6.5)"  >
<path style="stroke: none; stroke-width: 1; stroke-dasharray: none; stroke-linecap: butt; stroke-dashoffset: 0; stroke-linejoin: miter; stroke-miterlimit: 4; fill: rgb(0,0,0); fill-rule: nonzero; opacity: 1;"  transform=" translate(-13, -14.5)" d="M 0 0 C 3.3 0 6.6 0 10 0 C 10.3396019 1.87387477 10.67138691 3.74916697 11 5.625 C 11.185625 6.66914062 11.37125 7.71328125 11.5625 8.7890625 C 11.98715797 11.90574865 12.07545206 14.85930812 12 18 C 12.66 18 13.32 18 14 18 C 14.26554687 17.14148438 14.53109375 16.28296875 14.8046875 15.3984375 C 16.01023801 11.97089192 17.47244386 8.85826202 19.125 5.625 C 19.66382813 4.56539063 20.20265625 3.50578125 20.7578125 2.4140625 C 21.16773438 1.61742188 21.57765625 0.82078125 22 0 C 24.97 0 27.94 0 31 0 C 30.50940538 9.87956066 28.97298648 19.33360714 27 29 C 25.02 29 23.04 29 21 29 C 21.33 23.72 21.66 18.44 22 13 C 19.36 18.28 16.72 23.56 14 29 C 12.02 29 10.04 29 8 29 C 7.01 24.05 6.02 19.1 5 14 C 4.71125 15.175625 4.4225 16.35125 4.125 17.5625 C 3.16686279 21.4018927 2.10794489 25.2013318 1 29 C -0.98 29 -2.96 29 -5 29 C -4.35973661 24.54084805 -3.71185223 20.08283674 -3.0625 15.625 C -2.78889648 13.71847656 -2.78889648 13.71847656 -2.50976562 11.7734375 C -2.33251953 10.56171875 -2.15527344 9.35 -1.97265625 8.1015625 C -1.81031494 6.98088379 -1.64797363 5.86020508 -1.48071289 4.70556641 C -1 2 -1 2 0 0 Z" stroke-linecap="round" />
</g>
		<g transform="matrix(1 0 0 1 67.75 6.38)"  >
<path style="stroke: none; stroke-width: 1; stroke-dasharray: none; stroke-linecap: butt; stroke-dashoffset: 0; stroke-linejoin: miter; stroke-miterlimit: 4; fill: rgb(0,0,0); fill-rule: nonzero; opacity: 1;"  transform=" translate(-7.75, -14.38)" d="M 0 0 C 2.41734542 -0.08117951 4.83194949 -0.14056926 7.25 -0.1875 C 7.93191406 -0.21263672 8.61382812 -0.23777344 9.31640625 -0.26367188 C 12.41395189 -0.30878176 14.6671664 -0.16800677 17.453125 1.23828125 C 19.88749639 4.01075977 19.55213924 6.22979881 19.390625 9.77734375 C 18.6737478 13.85637504 16.43044833 15.9641581 13.1875 18.3125 C 10.09705745 19.28378195 7.21420305 19.12362319 4 19 C 3.93941406 19.63808594 3.87882813 20.27617187 3.81640625 20.93359375 C 3.69072266 22.17302734 3.69072266 22.17302734 3.5625 23.4375 C 3.48128906 24.26121094 3.40007812 25.08492187 3.31640625 25.93359375 C 3 28 3 28 2 29 C 0.00041636 29.04080783 -2.00045254 29.04254356 -4 29 C -3.45089248 19.17286886 -1.81857774 9.6533309 0 0 Z M 6 5 C 5.67 7.97 5.34 10.94 5 14 C 6.98 13.67 8.96 13.34 11 13 C 11.33 10.69 11.66 8.38 12 6 C 9.03 5.505 9.03 5.505 6 5 Z" stroke-linecap="round" />
</g>
		<g transform="matrix(1 0 0 1 -57.99 10.56)"  >
<path style="stroke: none; stroke-width: 1; stroke-dasharray: none; stroke-linecap: butt; stroke-dashoffset: 0; stroke-linejoin: miter; stroke-miterlimit: 4; fill: rgb(0,0,0); fill-rule: nonzero; opacity: 1;"  transform=" translate(6.98, -10.55)" d="M 0 0 C 1.9375 1.5625 1.9375 1.5625 3 4 C 3.28443209 6.75845458 3.18320195 9.20617033 3 12 C 2 13 2 13 -0.72265625 13.09765625 C -2.37587891 13.08025391 -2.37587891 13.08025391 -4.0625 13.0625 C -5.71958984 13.04896484 -5.71958984 13.04896484 -7.41015625 13.03515625 C -8.26480469 13.02355469 -9.11945313 13.01195312 -10 13 C -8.73787713 14.59627278 -8.73787713 14.59627278 -7 16 C -3.35458155 15.76522801 -3.35458155 15.76522801 0 15 C 0 16.65 0 18.3 0 20 C -4.73291737 21.96242915 -8.02712223 22.38135494 -13 21 C -15.5 19 -15.5 19 -17 16 C -17.44963742 11.86023481 -16.90573402 8.45025268 -14.6875 4.8984375 C -10.21402044 -0.53684016 -7.09574934 -1.64722752 0 0 Z M -7 4 C -7.66 5.32 -8.32 6.64 -9 8 C -7.02 8 -5.04 8 -3 8 C -3.33 6.68 -3.66 5.36 -4 4 C -4.99 4 -5.98 4 -7 4 Z" stroke-linecap="round" />
</g>
		<g transform="matrix(1 0 0 1 -35.92 10.49)"  >
<path style="stroke: none; stroke-width: 1; stroke-dasharray: none; stroke-linecap: butt; stroke-dashoffset: 0; stroke-linejoin: miter; stroke-miterlimit: 4; fill: rgb(0,0,0); fill-rule: nonzero; opacity: 1;"  transform=" translate(6.92, -10.49)" d="M 0 0 C 1.7265625 1.1171875 1.7265625 1.1171875 3 3 C 3.109375 6.21484375 3.109375 6.21484375 2.75 9.9375 C 2.64171875 11.16339844 2.5334375 12.38929688 2.421875 13.65234375 C 2.10063515 16.20144146 1.71473629 18.54155364 1 21 C -1.66666667 21 -4.33333333 21 -7 21 C -7.78375 21.20625 -8.5675 21.4125 -9.375 21.625 C -12 22 -12 22 -14.25 21.3125 C -16 20 -16 20 -16.875 18.1875 C -17.04269552 15.2528284 -16.39053123 13.58241514 -15 11 C -11.59550234 7.33361791 -7.7553942 7.39628285 -3 7 C -3.33 6.34 -3.66 5.68 -4 5 C -8.455 5.495 -8.455 5.495 -13 6 C -12.8125 3.625 -12.8125 3.625 -12 1 C -7.97929973 -1.60162959 -4.52593012 -1.08957577 0 0 Z M -5 11 C -6.65 11.66 -8.3 12.32 -10 13 C -9.67 14.32 -9.34 15.64 -9 17 C -7.35 16.01 -5.7 15.02 -4 14 C -4.33 13.01 -4.66 12.02 -5 11 Z" stroke-linecap="round" />
</g>
		<g transform="matrix(1 0 0 1 -5 10.03)"  >
<path style="stroke: none; stroke-width: 1; stroke-dasharray: none; stroke-linecap: butt; stroke-dashoffset: 0; stroke-linejoin: miter; stroke-miterlimit: 4; fill: rgb(0,0,0); fill-rule: nonzero; opacity: 1;"  transform=" translate(3, -10.04)" d="M 0 0 C 0.66 0.66 1.32 1.32 2 2 C 2.53625 1.484375 3.0725 0.96875 3.625 0.4375 C 6 -1 6 -1 9.125 -0.875 C 12 0 12 0 14 3 C 14.01171875 5.70703125 14.01171875 5.70703125 13.6875 8.8125 C 13.57921875 9.87597656 13.4709375 10.93945312 13.359375 12.03515625 C 12.99478998 15.04298271 12.57842468 18.02524451 12 21 C 9.69 21 7.38 21 5 21 C 5.66 15.72 6.32 10.44 7 5 C 5.35 5.66 3.7 6.32 2 7 C 0.9944159 9.78960399 0.9944159 9.78960399 0.75 13 C 0.03797468 18.92405063 0.03797468 18.92405063 -1 21 C -2.98 21 -4.96 21 -7 21 C -6.67 15.72 -6.34 10.44 -6 5 C -7.32 5.33 -8.64 5.66 -10 6 C -10.99 10.95 -11.98 15.9 -13 21 C -15.31 21 -17.62 21 -20 21 C -19.01 14.07 -18.02 7.14 -17 0 C -14 0 -11 0 -8 0 C -5.09288879 -1.4535556 -3.10402897 -0.71133997 0 0 Z" stroke-linecap="round" />
</g>
		<g transform="matrix(1 0 0 1 -128 -128)"  >
<path style="stroke: none; stroke-width: 1; stroke-dasharray: none; stroke-linecap: butt; stroke-dashoffset: 0; stroke-linejoin: miter; stroke-miterlimit: 4; fill: rgb(0,0,0); fill-rule: nonzero; opacity: 1;"  transform=" translate(0, 0)" d="" stroke-linecap="round" />
</g>
		<g transform="matrix(1 0 0 1 -87 22.55)"  >
<path style="stroke: none; stroke-width: 1; stroke-dasharray: none; stroke-linecap: butt; stroke-dashoffset: 0; stroke-linejoin: miter; stroke-miterlimit: 4; fill: rgb(0,0,0); fill-rule: nonzero; opacity: 1;"  transform=" translate(-13, -18.55)" d="M 0 0 C 0 3 0 3 -1.5 6.4375 C -3.78592302 12.36558745 -4.266883 19.13123902 -2.2734375 25.21875 C -0.25983597 29.08224562 1.92692705 31.52676085 6 33 C 13.06858352 33.88913 19.231605 33.41112559 25 29 C 27.52690329 26.47309671 29.80883315 23.82112732 32 21 C 32.495 22.485 32.495 22.485 33 24 C 29.67934297 30.52080635 24.74382527 34.22106553 18 36.75 C 11.77700977 37.52787378 6.47209174 37.14118045 1 34 C -3.55232769 30.11092536 -6.08815066 25.97767898 -7 20 C -7.07743232 13.25232626 -5.68820658 7.67844635 -2 2 C -1.34 1.34 -0.68 0.68 0 0 Z" stroke-linecap="round" />
</g>
		<g transform="matrix(1 0 0 1 63.53 25.09)"  >
<path style="stroke: none; stroke-width: 1; stroke-dasharray: none; stroke-linecap: butt; stroke-dashoffset: 0; stroke-linejoin: miter; stroke-miterlimit: 4; fill: rgb(0,0,0); fill-rule: nonzero; opacity: 1;"  transform=" translate(16.47, -15.09)" d="M 0 0 C 3.38237869 2.90701736 3.72491705 5.20518897 4.0625 9.5234375 C 3.92081141 15.13784793 2.18514593 19.52657534 -1.3125 23.875 C -8.04859885 29.2012177 -14.60200512 30.73902355 -23 30 C -29.10133814 28.74413299 -32.9992717 26.77506281 -37 22 C -36.67 21.34 -36.34 20.68 -36 20 C -35.33613281 20.42152344 -34.67226562 20.84304687 -33.98828125 21.27734375 C -33.10527344 21.82519531 -32.22226563 22.37304688 -31.3125 22.9375 C -30.00732422 23.75541016 -30.00732422 23.75541016 -28.67578125 24.58984375 C -23.24796353 27.45034331 -16.75106839 28.13008594 -10.84765625 26.3515625 C -5.45439048 24.00142434 -3.37969407 21.33051472 -1 16 C 0.11768427 12.55870895 0.10166945 9.35358945 0.0625 5.75 C 0.05347656 4.67234375 0.04445312 3.5946875 0.03515625 2.484375 C 0.02355469 1.66453125 0.01195312 0.8446875 0 0 Z" stroke-linecap="round" />
</g>
		<g transform="matrix(1 0 0 1 103 22.14)"  >
<path style="stroke: none; stroke-width: 1; stroke-dasharray: none; stroke-linecap: butt; stroke-dashoffset: 0; stroke-linejoin: miter; stroke-miterlimit: 4; fill: rgb(0,0,0); fill-rule: nonzero; opacity: 1;"  transform=" translate(14, -3.14)" d="M 0 0 C -9.31162841 6.33674453 -16.82027127 7.3026092 -28 7 C -28 6.67 -28 6.34 -28 6 C -27.38479492 5.85900879 -26.76958984 5.71801758 -26.13574219 5.57275391 C -23.33925632 4.9287499 -20.54464107 4.27696083 -17.75 3.625 C -16.78191406 3.40328125 -15.81382812 3.1815625 -14.81640625 2.953125 C -13.88183594 2.73398438 -12.94726562 2.51484375 -11.984375 2.2890625 C -11.12553711 2.09006348 -10.26669922 1.89106445 -9.38183594 1.68603516 C -6.97747128 1.08450399 -6.97747128 1.08450399 -4.87597656 -0.14306641 C -3 -1 -3 -1 0 0 Z" stroke-linecap="round" />
</g>
		<g transform="matrix(1 0 0 1 -128 -128)"  >
<path style="stroke: none; stroke-width: 1; stroke-dasharray: none; stroke-linecap: butt; stroke-dashoffset: 0; stroke-linejoin: miter; stroke-miterlimit: 4; fill: rgb(0,0,0); fill-rule: nonzero; opacity: 1;"  transform=" translate(0, 0)" d="" stroke-linecap="round" />
</g>
		<g transform="matrix(1 0 0 1 -114 24.5)"  >
<path style="stroke: none; stroke-width: 1; stroke-dasharray: none; stroke-linecap: butt; stroke-dashoffset: 0; stroke-linejoin: miter; stroke-miterlimit: 4; fill: rgb(0,0,0); fill-rule: nonzero; opacity: 1;"  transform=" translate(-6, -1.5)" d="M 0 0 C 3.96 0.33 7.92 0.66 12 1 C 11.67 1.66 11.34 2.32 11 3 C 9.54077307 2.88590407 8.08259402 2.75834456 6.625 2.625 C 5.40683594 2.52058594 5.40683594 2.52058594 4.1640625 2.4140625 C 2 2 2 2 0 0 Z" stroke-linecap="round" />
</g>
		<g transform="matrix(1 0 0 1 -11 25.57)"  >
<path style="stroke: none; stroke-width: 1; stroke-dasharray: none; stroke-linecap: butt; stroke-dashoffset: 0; stroke-linejoin: miter; stroke-miterlimit: 4; fill: rgb(0,0,0); fill-rule: nonzero; opacity: 1;"  transform=" translate(-46, -1.57)" d="M 0 0 C 30.36 0 60.72 0 92 0 C 92 0.33 92 0.66 92 1 C 87.28544383 2.14049296 82.60285682 2.33771101 77.77734375 2.5546875 C 76.86129868 2.59673309 75.9452536 2.63877869 75.00144958 2.68209839 C 64.61026483 3.11662962 54.22131558 3.15073173 43.82250977 3.13037109 C 40.5411323 3.1249648 37.25988924 3.13038076 33.97851562 3.13671875 C 8.70753294 3.14767414 8.70753294 3.14767414 2 2 C 1.34 1.34 0.68 0.68 0 0 Z" stroke-linecap="round" />
</g>
		<g transform="matrix(1 0 0 1 -128 -128)"  >
<path style="stroke: none; stroke-width: 1; stroke-dasharray: none; stroke-linecap: butt; stroke-dashoffset: 0; stroke-linejoin: miter; stroke-miterlimit: 4; fill: rgb(0,0,0); fill-rule: nonzero; opacity: 1;"  transform=" translate(0, 0)" d="" stroke-linecap="round" />
</g>
</g>
</g>
</svg>